<?xml version="1.0" encoding="UTF-8"?>
<svg id="Ebene_1" data-name="Ebene 1" xmlns="http://www.w3.org/2000/svg" viewBox="0 0 364.76 67.47">
  <defs>
    <style>
      .cls-1 {
        fill: none;
        stroke: #1d1d1b;
        stroke-width: .5px;
      }

      .cls-2 {
        fill: #1d1d1b;
      }
    </style>
  </defs>
  <g>
    <path class="cls-2" d="m20.5,32.77H0v-.99L18.72,6.32H1.3v-.95h18.63v.99L1.22,31.82h19.28v.95Z"/>
    <path class="cls-2" d="m46.08,32.77l-4.47-11.14h-12.07l-4.52,11.14h-1.04l11.16-27.39h.96l11.03,27.39h-1.04Zm-11.47-23.74l-4.73,11.7h11.38l-4.69-11.7-.96-2.67-1,2.67Z"/>
    <path class="cls-2" d="m70.66,32.77h-1v-13.46h-16.5v13.46h-1V5.38h1v12.99h16.5V5.38h1v27.39Z"/>
    <path class="cls-2" d="m99.54,32.77h-.91l-16.24-22.62-2.56-3.7v26.32h-.96V5.38h1.22l15.9,22.1,2.61,3.78V5.38h.96v27.39Z"/>
    <path class="cls-2" d="m126.64,32.77l-4.47-11.14h-12.07l-4.52,11.14h-1.04l11.16-27.39h.96l11.03,27.39h-1.04Zm-11.47-23.74l-4.73,11.7h11.38l-4.69-11.7-.96-2.67-1,2.67Zm-.87-8.04c0,.29-.1.52-.3.71-.2.19-.43.28-.7.28s-.48-.1-.67-.3c-.19-.2-.28-.43-.28-.69,0-.29.09-.52.28-.71.19-.19.41-.28.67-.28s.49.09.7.28c.2.19.3.42.3.71Zm5.69,0c0,.29-.1.52-.3.71-.2.19-.43.28-.69.28s-.48-.1-.67-.3c-.19-.2-.28-.43-.28-.69,0-.29.09-.52.28-.71.19-.19.41-.28.67-.28s.49.09.69.28c.2.19.3.42.3.71Z"/>
    <path class="cls-2" d="m148.66,32.77h-1.26l-8.86-12.21h-4.82v12.21h-1V5.38h5.65c1.71,0,3.16.31,4.36.92,1.2.62,2.15,1.48,2.84,2.6.69,1.12,1.04,2.39,1.04,3.83,0,2.24-.62,4.03-1.85,5.38-1.23,1.35-2.93,2.14-5.1,2.37l8.99,12.3Zm-14.94-13.12h4.6c2.26,0,4.02-.59,5.3-1.78,1.27-1.19,1.91-2.9,1.91-5.14,0-1.98-.65-3.54-1.95-4.69-1.3-1.15-3.13-1.72-5.47-1.72h-4.39v13.33Z"/>
    <path class="cls-2" d="m172.59,32.77h-20.5v-.99l18.72-25.46h-17.42v-.95h18.63v.99l-18.72,25.46h19.28v.95Z"/>
    <path class="cls-2" d="m195.95,6.32h-9.51v26.45h-1V6.32h-9.51v-.95h20.02v.95Z"/>
    <path class="cls-2" d="m216.32,32.77h-15.24V5.38h14.77v.95h-13.77v12.04h12.46v.95h-12.46v12.51h14.24v.95Z"/>
    <path class="cls-2" d="m257.8,32.77h-20.5v-.99l18.72-25.46h-17.42v-.95h18.63v.99l-18.72,25.46h19.28v.95Z"/>
    <path class="cls-2" d="m282.03,5.38v18.96c0,2.75-.84,4.88-2.52,6.38-1.68,1.51-4.1,2.26-7.25,2.26s-5.62-.75-7.3-2.26c-1.68-1.5-2.52-3.63-2.52-6.38V5.38h1v18.79c0,5.19,2.94,7.78,8.82,7.78s8.82-2.59,8.82-7.78V5.38h.96Zm-11.55-4.39c0,.29-.1.52-.3.71-.2.19-.43.28-.69.28s-.49-.1-.67-.3c-.19-.2-.28-.43-.28-.69,0-.29.09-.52.28-.71.19-.19.41-.28.67-.28s.49.09.69.28c.2.19.3.42.3.71Zm5.69,0c0,.29-.1.52-.3.71-.2.19-.43.28-.7.28s-.49-.1-.67-.3c-.19-.2-.28-.43-.28-.69,0-.29.09-.52.28-.71.19-.19.41-.28.67-.28s.49.09.7.28c.2.19.3.42.3.71Z"/>
    <path class="cls-2" d="m306.05,32.77h-1.26l-8.86-12.21h-4.82v12.21h-1V5.38h5.65c1.71,0,3.16.31,4.36.92,1.2.62,2.15,1.48,2.85,2.6.69,1.12,1.04,2.39,1.04,3.83,0,2.24-.62,4.03-1.85,5.38-1.23,1.35-2.93,2.14-5.1,2.37l8.99,12.3Zm-14.94-13.12h4.6c2.26,0,4.02-.59,5.3-1.78,1.27-1.19,1.91-2.9,1.91-5.14,0-1.98-.65-3.54-1.95-4.69-1.3-1.15-3.13-1.72-5.47-1.72h-4.39v13.33Z"/>
    <path class="cls-2" d="m312.08,32.77h-1V5.38h1v27.39Z"/>
    <path class="cls-2" d="m340.92,29.37v1.25c-.75.66-1.86,1.22-3.32,1.68-1.46.46-3,.69-4.63.69-2.11,0-4.08-.31-5.91-.92-1.82-.62-3.4-1.5-4.71-2.67-1.32-1.16-2.34-2.59-3.06-4.3-.72-1.71-1.09-3.59-1.09-5.65,0-2.18.38-4.16,1.13-5.96s1.79-3.3,3.13-4.54c1.33-1.23,2.87-2.17,4.62-2.82,1.75-.64,3.58-.97,5.49-.97,1.74,0,3.31.19,4.71.58,1.4.39,2.53.9,3.37,1.53v1.2c-.81-.69-1.93-1.25-3.37-1.68-1.43-.43-3-.65-4.71-.65s-3.37.27-4.97.82c-1.61.54-3.04,1.37-4.3,2.47-1.26,1.1-2.25,2.51-2.97,4.21-.72,1.71-1.09,3.63-1.09,5.78,0,2.04.35,3.86,1.06,5.46.71,1.61,1.69,2.93,2.95,3.98,1.26,1.05,2.72,1.83,4.39,2.34,1.66.52,3.44.77,5.32.77,1.62,0,3.16-.26,4.6-.77,1.45-.52,2.56-1.13,3.34-1.85Z"/>
    <path class="cls-2" d="m364.76,32.77h-1v-13.46h-16.5v13.46h-1V5.38h1v12.99h16.5V5.38h1v27.39Z"/>
  </g>
  <g>
    <path class="cls-2" d="m77.97,62.66c0,1.47-.48,2.62-1.45,3.44-.97.82-2.32,1.23-4.06,1.23h-4.72v-18.47h4.01c1.78,0,3.16.4,4.14,1.19.99.79,1.48,1.94,1.48,3.45,0,.5-.11,1.07-.34,1.7-.22.63-.65,1.2-1.27,1.71-.62.51-1.37.85-2.23,1,.59.1,1.23.31,1.93.64.7.33,1.29.85,1.77,1.57.48.71.72,1.57.72,2.55Zm-1.32-9.16c0-1.31-.43-2.31-1.29-2.99-.86-.68-2.11-1.01-3.75-1.01h-3.19v8.15h3.19c1.07,0,1.98-.17,2.71-.51.73-.34,1.3-.82,1.71-1.44.41-.62.62-1.35.62-2.2Zm.59,9.16c0-1.37-.49-2.45-1.48-3.23-.99-.78-2.37-1.17-4.14-1.17h-3.19v8.44h3.87c3.3,0,4.95-1.34,4.95-4.03Z"/>
    <path class="cls-2" d="m95.48,67.33l-3.02-7.51h-8.14l-3.05,7.51h-.7l7.53-18.47h.64l7.44,18.47h-.7Zm-7.73-16.01l-3.19,7.89h7.67l-3.16-7.89-.64-1.8-.67,1.8Z"/>
    <path class="cls-2" d="m113.23,67.33h-.67v-9.08h-11.13v9.08h-.67v-18.47h.67v8.76h11.13v-8.76h.67v18.47Z"/>
    <path class="cls-2" d="m133.94,67.33h-.62l-10.95-15.25-1.73-2.49v17.75h-.64v-18.47h.82l10.72,14.91,1.76,2.55v-17.46h.64v18.47Z"/>
    <path class="cls-2" d="m153.18,67.33h-.67v-9.08h-11.13v9.08h-.67v-18.47h.67v8.76h11.13v-8.76h.67v18.47Z"/>
    <path class="cls-2" d="m166.92,67.47c-1.21,0-2.36-.21-3.44-.64-1.08-.42-2.03-1.03-2.84-1.83-.81-.79-1.45-1.74-1.9-2.86-.46-1.11-.69-2.32-.69-3.64,0-1.53.24-2.91.73-4.15.49-1.24,1.16-2.27,2.01-3.1.85-.83,1.76-1.44,2.72-1.81.97-.38,1.77-.59,2.42-.65.64-.06,1.08-.09,1.32-.09,1.21,0,2.36.21,3.44.64,1.08.43,2.03,1.04,2.84,1.83.81.79,1.44,1.75,1.9,2.86.46,1.11.69,2.33.69,3.64,0,1.53-.24,2.91-.73,4.15-.49,1.24-1.16,2.27-2.01,3.1-.85.83-1.83,1.46-2.94,1.9-1.11.44-2.28.65-3.51.65Zm0-.67c1.15,0,2.24-.19,3.27-.58,1.03-.39,1.93-.97,2.72-1.74.79-.77,1.41-1.74,1.85-2.9.44-1.16.66-2.46.66-3.92,0-1.26-.21-2.41-.63-3.45-.42-1.04-1.01-1.92-1.76-2.64-.75-.71-1.63-1.26-2.62-1.64-1-.38-2.05-.57-3.16-.57s-2.24.19-3.27.58c-1.02.39-1.93.97-2.72,1.74-.79.77-1.41,1.74-1.85,2.9-.44,1.16-.66,2.47-.66,3.92,0,1.26.21,2.41.63,3.45.42,1.04,1.01,1.92,1.76,2.64.75.71,1.63,1.26,2.62,1.64,1,.38,2.05.57,3.16.57Z"/>
    <path class="cls-2" d="m181.65,67.33h-.67v-18.47h10.08v.64h-9.4v8.18h8.52v.64h-8.52v9.02Z"/>
    <path class="cls-2" d="m204.82,62.89c0,1.31-.53,2.41-1.6,3.28-1.06.87-2.44,1.3-4.12,1.3-.88,0-1.76-.12-2.64-.35-.88-.23-1.56-.51-2.05-.84l.06-.75c.51.37,1.19.67,2.04.91.85.24,1.71.36,2.59.36.61,0,1.22-.09,1.85-.26.62-.17,1.17-.42,1.64-.74.47-.32.84-.73,1.11-1.23.27-.5.41-1.06.41-1.68,0-.5-.1-.97-.29-1.39-.2-.42-.53-.87-1-1.33-.47-.46-1.4-1.06-2.78-1.78-1.39-.73-2.27-1.2-2.64-1.42-.37-.22-.74-.49-1.11-.8-.37-.31-.65-.6-.83-.88-.19-.28-.34-.58-.47-.9-.13-.32-.19-.7-.19-1.15,0-1.29.52-2.37,1.55-3.23,1.04-.86,2.39-1.29,4.07-1.29.8,0,1.56.08,2.28.25.72.16,1.28.37,1.67.62v.75c-.39-.27-.95-.5-1.67-.68-.72-.18-1.48-.28-2.28-.28-.88,0-1.71.15-2.5.45-.79.3-1.39.75-1.8,1.36-.41.61-.61,1.29-.61,2.04,0,.5.12.96.37,1.38.24.42.62.82,1.13,1.22s1.43.94,2.77,1.62c1.34.69,2.29,1.24,2.86,1.67.57.43,1,.83,1.3,1.2.3.38.53.78.67,1.2.15.42.22.88.22,1.36Z"/>
    <path class="cls-2" d="m221.6,49.49h-6.41v17.84h-.67v-17.84h-6.41v-.64h13.5v.64Z"/>
    <path class="cls-2" d="m237.09,67.33h-.85l-5.98-8.24h-3.25v8.24h-.67v-18.47h3.81c1.15,0,2.13.21,2.94.62.81.42,1.45,1,1.92,1.75.47.75.7,1.61.7,2.58,0,1.51-.41,2.72-1.25,3.62-.83.91-1.98,1.44-3.44,1.59l6.06,8.29Zm-10.08-8.84h3.1c1.52,0,2.71-.4,3.57-1.2.86-.8,1.29-1.96,1.29-3.46,0-1.33-.44-2.39-1.32-3.16-.88-.77-2.11-1.16-3.69-1.16h-2.96v8.99Z"/>
    <path class="cls-2" d="m254.32,67.33l-3.02-7.51h-8.14l-3.05,7.51h-.7l7.53-18.47h.64l7.44,18.47h-.7Zm-7.73-16.01l-3.19,7.89h7.67l-3.16-7.89-.64-1.8-.67,1.8Z"/>
    <path class="cls-2" d="m268.2,62.89c0,1.31-.53,2.41-1.6,3.28-1.06.87-2.44,1.3-4.12,1.3-.88,0-1.76-.12-2.64-.35-.88-.23-1.56-.51-2.05-.84l.06-.75c.51.37,1.19.67,2.04.91.85.24,1.71.36,2.59.36.61,0,1.22-.09,1.85-.26.62-.17,1.17-.42,1.64-.74.47-.32.84-.73,1.11-1.23.27-.5.41-1.06.41-1.68,0-.5-.1-.97-.29-1.39-.2-.42-.53-.87-1-1.33-.47-.46-1.4-1.06-2.78-1.78-1.39-.73-2.27-1.2-2.64-1.42-.37-.22-.74-.49-1.11-.8-.37-.31-.65-.6-.83-.88-.19-.28-.34-.58-.47-.9-.13-.32-.19-.7-.19-1.15,0-1.29.52-2.37,1.55-3.23,1.04-.86,2.39-1.29,4.07-1.29.8,0,1.56.08,2.28.25.72.16,1.28.37,1.67.62v.75c-.39-.27-.95-.5-1.67-.68-.72-.18-1.48-.28-2.28-.28-.88,0-1.71.15-2.5.45-.79.3-1.39.75-1.8,1.36-.41.61-.61,1.29-.61,2.04,0,.5.12.96.37,1.38.24.42.62.82,1.13,1.22s1.43.94,2.77,1.62c1.34.69,2.29,1.24,2.86,1.67.57.43,1,.83,1.3,1.2.3.38.53.78.67,1.2.15.42.22.88.22,1.36Z"/>
    <path class="cls-2" d="m282.08,62.89c0,1.31-.53,2.41-1.6,3.28-1.06.87-2.44,1.3-4.12,1.3-.88,0-1.76-.12-2.64-.35-.88-.23-1.56-.51-2.05-.84l.06-.75c.51.37,1.19.67,2.04.91.85.24,1.71.36,2.59.36.61,0,1.22-.09,1.85-.26.62-.17,1.17-.42,1.64-.74.47-.32.84-.73,1.11-1.23.27-.5.41-1.06.41-1.68,0-.5-.1-.97-.29-1.39-.2-.42-.53-.87-1-1.33-.47-.46-1.4-1.06-2.78-1.78-1.39-.73-2.27-1.2-2.64-1.42-.37-.22-.74-.49-1.11-.8-.37-.31-.65-.6-.83-.88-.19-.28-.34-.58-.47-.9-.13-.32-.19-.7-.19-1.15,0-1.29.52-2.37,1.55-3.23,1.03-.86,2.39-1.29,4.07-1.29.8,0,1.56.08,2.29.25.72.16,1.28.37,1.67.62v.75c-.39-.27-.95-.5-1.67-.68-.72-.18-1.48-.28-2.29-.28-.88,0-1.71.15-2.5.45-.79.3-1.39.75-1.8,1.36-.41.61-.61,1.29-.61,2.04,0,.5.12.96.37,1.38.24.42.62.82,1.13,1.22.51.4,1.43.94,2.77,1.62,1.34.69,2.29,1.24,2.86,1.67.57.43,1,.83,1.3,1.2.3.38.53.78.67,1.2.15.42.22.88.22,1.36Z"/>
    <path class="cls-2" d="m297.67,67.33h-10.28v-18.47h9.96v.64h-9.29v8.12h8.41v.64h-8.41v8.44h9.61v.64Z"/>
  </g>
  <line class="cls-1" x1="304.93" y1="57.63" x2="363.04" y2="57.63"/>
  <line class="cls-1" x1="3.05" y1="57.63" x2="61.16" y2="57.63"/>
</svg>